Coordinates
version=1
nRows=30
nColumns=30
inDegrees=yes

Units are S.I. units (second, meters, Newtons, ...)
Angles are in degrees.

endheader
time	floatyaw	floatroll	floatpitch	floatx	floaty	floatz	pro_sup_l	deviation_l	flexion_l	cmc_flexion_l	cmc_abduction_l	mp_flexion_l	ip_flexion_l	2mcp_flexion_l	2mcp_abduction_l	2pm_flexion_l	2md_flexion_l	3mcp_flexion_l	3mcp_abduction_l	3pm_flexion_l	3md_flexion_l	4mcp_flexion_l	4mcp_abduction_l	4pm_flexion_l	4md_flexion_l	5mcp_flexion_l	5mcp_abduction_l	5pm_flexion_l	5md_flexion_l
-1.495000	-4.179282	-4.936475	96.455532	-0.108179	-0.183381	-0.040342	86.155380	0.546034	-2.667554	16.022193	4.445848	-21.874262	-34.374357	38.125845	9.749430	46.981147	33.934724	21.516519	5.035400	47.007882	33.046648	9.316692	-5.023594	62.154954	43.069679	1.228825	-8.566734	62.922621	43.420649
-1.485000	-4.179282	-4.936475	96.455532	-0.108176	-0.183391	-0.040352	86.141187	0.550226	-2.676277	16.003877	4.453013	-21.886604	-34.367905	38.140665	9.741049	46.972481	33.938153	21.521277	5.034238	47.001777	33.050934	9.327182	-5.022819	62.149117	43.073940	1.222512	-8.559066	62.932530	43.438649
-1.475000	-4.179282	-4.936475	96.455532	-0.108170	-0.183405	-0.040361	86.128614	0.554726	-2.688262	15.989383	4.459993	-21.902650	-34.368811	38.158339	9.734064	46.970126	33.941254	21.530686	5.033379	46.998418	33.054178	9.338681	-5.021544	62.150140	43.079405	1.223496	-8.553673	62.951358	43.459728
-1.465000	-4.179282	-4.936475	96.455532	-0.108161	-0.183421	-0.040370	86.117717	0.558438	-2.702157	15.978477	4.464639	-21.918563	-34.375229	38.178274	9.728574	46.974159	33.942935	21.545063	5.033240	46.997378	33.056906	9.349391	-5.019539	62.160043	43.086623	1.229876	-8.550127	62.983562	43.483643
-1.455000	-4.179282	-4.936475	96.455532	-0.108151	-0.183439	-0.040378	86.106564	0.560027	-2.715801	15.970325	4.467501	-21.931037	-34.384689	38.198480	9.725268	46.983763	33.943184	21.561827	5.034041	46.999921	33.060525	9.357547	-5.017027	62.178907	43.095680	1.238717	-8.548669	63.027767	43.507913
-1.445000	-4.179282	-4.936475	96.455532	-0.108139	-0.183460	-0.040386	86.092344	0.558579	-2.727568	15.964323	4.470750	-21.938504	-34.395330	38.216589	9.725151	46.997828	33.942979	21.577391	5.035787	47.007993	33.066318	9.362672	-5.014879	62.204893	43.106113	1.247595	-8.549681	63.077168	43.528391
-1.435000	-4.179282	-4.936475	96.455532	-0.108127	-0.183483	-0.040396	86.073086	0.554171	-2.737207	15.960267	4.476288	-21.941375	-34.406289	38.230966	9.728770	47.015039	33.943539	21.589253	5.038252	47.022583	33.074564	9.366038	-5.014406	62.234626	43.116884	1.255135	-8.552777	63.122803	43.541073
-1.425000	-4.179282	-4.936475	96.455532	-0.108117	-0.183507	-0.040409	86.048908	0.547883	-2.745588	15.957931	4.484267	-21.941291	-34.417159	38.241391	9.735559	47.033498	33.945475	21.597051	5.041056	47.042547	33.084393	9.369955	-5.016801	62.264043	43.126669	1.260372	-8.556199	63.157793	43.544200
-1.415000	-4.179282	-4.936475	96.455532	-0.108108	-0.183530	-0.040423	86.022124	0.541239	-2.753654	15.956605	4.492694	-21.939893	-34.427098	38.249028	9.743832	47.050452	33.948392	21.602163	5.043817	47.064652	33.094351	9.376240	-5.022515	62.289563	43.134482	1.261889	-8.557120	63.180000	43.539221
-1.405000	-4.179282	-4.936475	96.455532	-0.108102	-0.183551	-0.040440	85.996282	0.535478	-2.761452	15.955072	4.498228	-21.937927	-34.434432	38.255736	9.751463	47.062652	33.951218	21.606347	5.046293	47.084902	33.103234	9.384763	-5.030907	62.309168	43.140313	1.257705	-8.552860	63.191787	43.529943
-1.395000	-4.179282	-4.936475	96.455532	-0.108098	-0.183567	-0.040456	85.974705	0.531152	-2.767916	15.951958	4.497835	-21.935318	-34.437245	38.263157	9.756775	47.067361	33.953002	21.610377	5.048382	47.100360	33.110672	9.393061	-5.040394	62.322801	43.145298	1.246069	-8.542249	63.197613	43.520516
-1.385000	-4.179282	-4.936475	96.455532	-0.108097	-0.183577	-0.040470	85.959196	0.528223	-2.771478	15.946114	4.490564	-21.932029	-34.434597	38.272090	9.759102	47.063483	33.953577	21.613580	5.050039	47.110335	33.117171	9.397400	-5.049052	62.331842	43.151158	1.226615	-8.526323	63.201354	43.513648
-1.375000	-4.179282	-4.936475	96.455532	-0.108099	-0.183579	-0.040482	85.949422	0.526435	-2.771075	15.936868	4.478444	-21.928849	-34.427474	38.282503	9.758789	47.052166	33.953593	21.614489	5.051168	47.116230	33.123606	9.394760	-5.055331	62.338082	43.159167	1.201177	-8.508122	63.204932	43.510062
-1.365000	-4.179282	-4.936475	96.455532	-0.108102	-0.183578	-0.040492	85.943140	0.525608	-2.766945	15.924177	4.465833	-21.927288	-34.418657	38.294073	9.756752	47.036473	33.953920	21.612153	5.051617	47.120357	33.130518	9.384554	-5.058468	62.342993	43.169341	1.173756	-8.491844	63.208685	43.509153
-1.355000	-4.179282	-4.936475	96.455532	-0.108106	-0.183574	-0.040499	85.937019	0.525644	-2.760740	15.908684	4.457435	-21.928627	-34.411449	38.306780	9.753913	47.020217	33.954954	21.607151	5.051232	47.124669	33.137730	9.369006	-5.058445	62.347629	43.180430	1.149481	-8.481717	63.212697	43.510026
-1.345000	-4.179282	-4.936475	96.455532	-0.108109	-0.183572	-0.040507	85.927705	0.526339	-2.754859	15.891531	4.456046	-21.932993	-34.408066	38.321003	9.750802	47.006518	33.956379	21.601600	5.049933	47.130101	33.144541	9.351971	-5.055663	62.352844	43.190697	1.132847	-8.480749	63.217850	43.512075
-1.335000	-4.179282	-4.936475	96.455532	-0.108111	-0.183575	-0.040517	85.912888	0.527286	-2.751407	15.873893	4.461262	-21.939256	-34.408677	38.336967	9.747459	46.996716	33.957485	21.598230	5.047743	47.136552	33.150234	9.337045	-5.050641	62.359289	43.198877	1.125947	-8.489512	63.225763	43.514890
-1.325000	-4.179282	-4.936475	96.455532	-0.108111	-0.183583	-0.040528	85.892235	0.528040	-2.751473	15.856487	4.469823	-21.945703	-34.411574	38.354055	9.743610	46.990188	33.957728	21.599223	5.044809	47.143196	33.154422	9.326298	-5.043926	62.367074	43.204600	1.127493	-8.505262	63.237763	43.517905
-1.315000	-4.179282	-4.936475	96.455532	-0.108111	-0.183595	-0.040542	85.867777	0.528379	-2.755206	15.839390	4.477487	-21.950742	-34.414118	38.370735	9.739050	46.985257	33.957194	21.605507	5.041458	47.149037	33.157115	9.320378	-5.036151	62.375497	43.208111	1.133244	-8.522124	63.253823	43.520379
-1.305000	-4.179282	-4.936475	96.455532	-0.108110	-0.183611	-0.040555	85.843133	0.528291	-2.762397	15.822197	4.481498	-21.953108	-34.413779	38.385365	9.734082	46.980772	33.956767	21.616574	5.038271	47.153736	33.158801	9.319442	-5.028117	62.383360	43.209750	1.137923	-8.533092	63.272486	43.521827
-1.295000	-4.179282	-4.936475	96.455532	-0.108110	-0.183627	-0.040567	85.821602	0.527649	-2.772904	15.804316	4.482187	-21.951804	-34.408848	38.397360	9.729741	46.977320	33.957920	21.630616	5.036037	47.158364	33.160648	9.323710	-5.020750	62.389910	43.209771	1.137856	-8.533467	63.292035	43.522548
-1.285000	-4.179282	-4.936475	96.455532	-0.108110	-0.183645	-0.040574	85.804263	0.525913	-2.786509	15.785294	4.482453	-21.946352	-34.398863	38.407782	9.727564	46.977211	33.962123	21.644944	5.035497	47.165442	33.164480	9.333081	-5.014905	62.395792	43.208579	1.132901	-8.523844	63.312256	43.523811
-1.275000	-4.179282	-4.936475	96.455532	-0.108108	-0.183664	-0.040577	85.789617	0.522331	-2.802443	15.765234	4.485184	-21.937461	-34.384911	38.418821	9.728920	46.983285	33.970160	21.656810	5.036927	47.177899	33.172125	9.346415	-5.011073	62.403136	43.206969	1.126333	-8.510329	63.335492	43.527464
-1.265000	-4.179282	-4.936475	96.455532	-0.108104	-0.183684	-0.040576	85.775093	0.516595	-2.819144	15.745181	4.490310	-21.927460	-34.369638	38.432422	9.734237	46.997289	33.981732	21.664485	5.039835	47.197301	33.184297	9.361439	-5.009223	62.414428	43.205993	1.122464	-8.501298	63.365929	43.535140
-1.255000	-4.179282	-4.936475	96.455532	-0.108099	-0.183703	-0.040573	85.759184	0.509400	-2.834574	15.726979	4.493794	-21.919743	-34.356530	38.449010	9.742507	47.018682	33.995548	21.668061	5.043027	47.222355	33.199758	9.375516	-5.008951	62.430795	43.206586	1.123288	-8.502487	63.407059	43.547442
-1.245000	-4.179282	-4.936475	96.455532	-0.108092	-0.183719	-0.040572	85.742601	0.502359	-2.846930	15.712364	4.489596	-21.917207	-34.348425	38.467228	9.751286	47.044364	34.009746	21.669470	5.045091	47.248676	33.215465	9.386746	-5.009836	62.450876	43.209235	1.126429	-8.513554	63.458627	43.563460
-1.235000	-4.179282	-4.936475	96.455532	-0.108084	-0.183730	-0.040572	85.727891	0.497274	-2.855320	15.701719	4.473355	-21.920636	-34.345964	38.484898	9.757302	47.069412	34.022284	21.671650	5.045057	47.270164	33.227747	9.394688	-5.011670	62.471080	43.213819	1.126048	-8.528268	63.515064	43.580891
-1.225000	-4.179282	-4.936475	96.455532	-0.108078	-0.183734	-0.040573	85.718113	0.495283	-2.860047	15.693355	4.445219	-21.928194	-34.347030	38.500516	9.757575	47.088510	34.031140	21.677292	5.042829	47.281351	33.233794	9.400365	-5.014365	62.487079	43.219532	1.116307	-8.537952	63.566767	43.596750
-1.215000	-4.179282	-4.936475	96.455532	-0.108073	-0.183731	-0.040572	85.715523	0.496422	-2.862375	15.683904	4.409974	-21.936455	-34.347725	38.514233	9.750636	47.097619	34.034520	21.687758	5.039106	47.279615	33.232671	9.405629	-5.017673	62.495677	43.224933	1.094990	-8.535839	63.603797	43.608357
-1.205000	-4.179282	-4.936475	96.455532	-0.108072	-0.183722	-0.040567	85.720779	0.499689	-2.863858	15.669735	4.374567	-21.942348	-34.344462	38.527573	9.737213	47.095482	34.031428	21.702537	5.034903	47.266329	33.225521	9.412142	-5.021036	62.496039	43.228283	1.064970	-8.520020	63.619920	43.614100
